<?xml version="1.0" standalone="no"?>
<!DOCTYPE svg PUBLIC "-//W3C//DTD SVG 20010904//EN"
 "http://www.w3.org/TR/2001/REC-SVG-20010904/DTD/svg10.dtd">
<svg version="1.0" xmlns="http://www.w3.org/2000/svg"
 width="324.000000pt" height="324.000000pt" viewBox="0 0 324.000000 324.000000"
 preserveAspectRatio="xMidYMid meet">
<metadata>
Created by potrace 1.14, written by Peter Selinger 2001-2017
</metadata>
<g transform="translate(0.000000,324.000000) scale(0.100000,-0.100000)"
fill="#000000" stroke="none">
<path d="M1975 3091 c-152 -43 -251 -124 -318 -259 l-42 -86 0 -160 c1 -141 4
-174 27 -267 36 -142 102 -321 189 -515 67 -149 159 -368 156 -370 -2 -2 -998
-319 -1237 -394 -91 -29 -183 -62 -205 -73 -136 -68 -286 -204 -330 -299 -31
-67 -33 -154 -5 -216 31 -68 112 -138 225 -193 379 -184 861 -172 1271 32 263
130 437 329 491 556 27 116 25 324 -6 471 -13 62 -22 115 -20 116 2 2 200 76
439 165 239 89 439 167 445 172 6 6 -1 6 -20 0 -236 -78 -875 -281 -882 -281
-5 0 -15 19 -22 43 -23 79 -83 221 -203 481 -66 143 -136 307 -155 365 -68
202 -43 324 89 447 165 152 324 152 434 0 21 -30 22 -30 49 -12 30 19 64 87
65 126 0 56 -68 126 -149 155 -59 20 -208 19 -286 -4z m48 -1784 c75 -297 20
-540 -163 -726 -127 -128 -303 -229 -488 -279 -89 -24 -114 -26 -292 -26 -169
-1 -209 2 -300 22 -192 43 -386 128 -424 187 -24 37 -19 76 15 128 60 90 178
177 389 283 82 41 1205 471 1236 473 6 1 19 -27 27 -62z"/>
</g>
</svg>
